<svg width="36" height="36" viewBox="0 0 36 36" version="1.1" xmlns="http://www.w3.org/2000/svg" xmlns:xlink="http://www.w3.org/1999/xlink">
<title>Instagram copy</title>
<desc>Created using Figma</desc>
<g id="Canvas" transform="translate(-19697 -2283)">
<g id="Instagram copy">
<g id="Combined Shape">
<use xlink:href="#path0_fill" transform="translate(19697 2283)"/>
</g>
<g id="Shape">
<use xlink:href="#path1_fill" transform="translate(19707.7 2293.68)"/>
</g>
</g>
</g>
<defs>
<path id="path0_fill" fill-rule="evenodd" d="M 16.0293 1.42508e-05L 18 1.42508e-05C 23.8613 1.42508e-05 24.5566 0.0212545 26.873 0.126479C 29.0137 0.224379 30.1738 0.582046 30.9492 0.882827C 31.9727 1.28078 32.7031 1.75685 33.4727 2.5254C 34.2402 3.2942 34.7168 4.02638 35.1152 5.05128C 35.416 5.82448 35.7734 6.98683 35.8711 9.12819C 35.9766 11.4434 36 12.1389 36 18.0005C 36 23.8618 35.9766 24.5574 35.8711 26.8726C 35.7734 29.0142 35.416 30.1763 35.1152 30.9497C 34.7168 31.9746 34.2402 32.7044 33.4727 33.4727C 32.7031 34.2415 31.9746 34.7173 30.9492 35.1152C 30.1758 35.4173 29.0137 35.7742 26.873 35.8721C 24.5566 35.9773 23.8613 36.0003 18 36.0003C 12.1367 36.0003 11.4414 35.9773 9.12695 35.8721C 6.98633 35.7732 5.82422 35.4155 5.05078 35.1148C 4.02539 34.7168 3.29297 34.241 2.52539 33.4722C 1.75781 32.7034 1.28125 31.9732 0.882812 30.9478C 0.582031 30.1746 0.224609 29.0122 0.126953 26.8709C 0.0214844 24.5554 0 23.8601 0 17.9949C 0 12.1299 0.0214844 11.438 0.126953 9.12257C 0.224609 6.98122 0.582031 5.81911 0.882812 5.04494C 1.28125 4.01979 1.75781 3.28786 2.52539 2.51906C 3.29297 1.75026 4.02539 1.27443 5.05078 0.875503C 5.82422 0.573501 6.98633 0.216567 9.12695 0.118178C 11.1523 0.0266256 11.9375 -0.000718171 16.0293 1.42508e-05ZM 29.7188 3.64723C 28.2637 3.64723 27.084 4.82643 27.084 6.28175C 27.084 7.73683 28.2637 8.91749 29.7188 8.91749C 31.1738 8.91749 32.3535 7.73683 32.3535 6.28175C 32.3535 4.82667 31.1738 3.64625 29.7188 3.64723ZM 6.72461 18.0054C 6.72461 11.7766 11.7734 6.72633 18 6.72633C 24.2266 6.72633 29.2734 11.7766 29.2734 18.0054C 29.2734 24.2344 24.2266 29.2822 18 29.2822C 11.7734 29.2822 6.72461 24.2344 6.72461 18.0054Z"/>
<path id="path1_fill" fill-rule="evenodd" d="M 7.31885 0C 11.3607 0 14.6377 3.27756 14.6377 7.3211C 14.6377 11.3642 11.3607 14.6422 7.31885 14.6422C 3.27656 14.6422 0 11.3642 0 7.3211C 0 3.27756 3.27656 3.25122e-15 7.31885 3.25122e-15L 7.31885 0Z"/>
</defs>
</svg>
