<svg width="44" height="36" viewBox="0 0 44 36" version="1.1" xmlns="http://www.w3.org/2000/svg" xmlns:xlink="http://www.w3.org/1999/xlink">
<title>Twitter copy</title>
<desc>Created using Figma</desc>
<g id="Canvas" transform="translate(-19825 -2283)">
<g id="Twitter copy">
<use xlink:href="#path0_fill" transform="translate(19825 2283)"/>
</g>
</g>
<defs>
<path id="path0_fill" fill-rule="evenodd" d="M 21.1523 9.57656L 21.2467 11.1337L 19.6729 10.943C 13.9441 10.2121 8.93935 7.73346 4.69001 3.5706L 2.61256 1.50506L 2.07745 3.03038C 0.944297 6.43058 1.66826 10.0215 4.029 12.4365C 5.28806 13.7712 5.00477 13.9619 2.83289 13.1674C 2.07745 12.9132 1.41645 12.7225 1.35349 12.8179C 1.13316 13.0403 1.88859 15.9321 2.48665 17.0761C 3.30504 18.665 4.9733 20.2221 6.79894 21.1436L 8.34129 21.8745L 6.51565 21.9063C 4.75296 21.9063 4.69001 21.938 4.87887 22.6054C 5.5084 24.6709 7.99505 26.8636 10.765 27.8169L 12.7165 28.4842L 11.0168 29.5011C 8.49867 30.9629 5.53988 31.7891 2.58108 31.8526C 1.16463 31.8844 0 32.0115 0 32.1069C 0 32.4246 3.84014 34.2042 6.07498 34.9033C 12.7795 36.9688 20.7431 36.0791 26.7236 32.5518C 30.9729 30.0413 35.2223 25.0522 37.2053 20.2221C 38.2755 17.6481 39.3457 12.945 39.3457 10.6888C 39.3457 9.22701 39.4401 9.03634 41.2028 7.28858C 42.2416 6.27169 43.2173 5.15948 43.4062 4.8417C 43.721 4.23793 43.6895 4.23793 42.0842 4.77815C 39.4087 5.73148 39.0309 5.60437 40.353 4.17437C 41.3287 3.15749 42.4934 1.31439 42.4934 0.774173C 42.4934 0.678841 42.0212 0.837729 41.4861 1.12373C 40.9195 1.4415 39.6605 1.91817 38.7162 2.20416L 37.0164 2.74438L 35.4741 1.69572C 34.6242 1.12373 33.4281 0.488175 32.7986 0.29751C 31.1933 -0.147376 28.7381 -0.0838213 27.2902 0.42462C 23.3556 1.85461 20.869 5.54081 21.1523 9.57656Z"/>
</defs>
</svg>
